<svg xmlns="http://www.w3.org/2000/svg" width="37.929" height="43.705" viewBox="0 0 37.929 43.705">
  <path id="Path_818" data-name="Path 818" d="M46.566,15.145a.7.7,0,0,1,.705-.7H57.881a.7.7,0,1,1,0,1.41H47.271A.7.7,0,0,1,46.566,15.145ZM44.79,22.2H65.5a.7.7,0,0,0,0-1.41H44.79a.7.7,0,0,0,0,1.41Zm0,6.353H56.917a.7.7,0,1,0,0-1.41H44.79a.7.7,0,0,0,0,1.41Zm31.362.906a5.789,5.789,0,0,1-2.167,2c-.9.518-1.824,1.053-3.785,5.1l1.7,1.168a3.759,3.759,0,0,1,.961,5.217l-1.6,2.327V49a.7.7,0,0,1-.7.7H39.741a.7.7,0,0,1-.7-.7V6.7a.7.7,0,0,1,.7-.7H62.126a.706.706,0,0,1,.5.207l8.421,8.422a.7.7,0,0,1,.206.5v7.266a4.6,4.6,0,0,1,4.9,7.071ZM69.842,48.295V45.427L55.6,35.616a.705.705,0,0,1-.18-.98l1.728-2.509a3.758,3.758,0,0,1,5.216-.961l1.694,1.167c3.072-3.268,3.25-4.33,3.414-5.352a5.786,5.786,0,0,1,1.1-2.739A4.569,4.569,0,0,1,69.842,23V15.419L62.831,8.407v6.015h3.484a.7.7,0,0,1,0,1.41H62.126a.7.7,0,0,1-.7-.7V7.41H40.446V48.295Zm1.252-9.4-9.532-6.566a2.32,2.32,0,0,0-1.32-.41,2.345,2.345,0,0,0-1.935,1.01l-1.329,1.928,13.388,9.222,1.328-1.928a2.349,2.349,0,0,0-.6-3.256ZM75.5,26.274a3.193,3.193,0,0,0-5.77-1.233,4.414,4.414,0,0,0-.87,2.163c-.194,1.213-.4,2.471-3.631,5.938l3.794,2.613c2.09-4.258,3.19-4.894,4.255-5.508a4.42,4.42,0,0,0,1.711-1.583A3.176,3.176,0,0,0,75.5,26.274Zm-15.635,8.4a.7.7,0,0,0,.18.98l8.479,5.841a.7.7,0,0,0,.8-1.161l-8.479-5.841a.7.7,0,0,0-.98.181Zm-5.318.878V46.514a.7.7,0,0,1-.705.7H42.882a.7.7,0,0,1-.705-.7V35.552a.7.7,0,0,1,.705-.7H53.843a.7.7,0,0,1,.705.7Zm-1.41.7H43.586V45.81h9.552Zm-6.4,7.986a.705.705,0,0,0,.5.206.532.532,0,0,0,.059,0,.7.7,0,0,0,.516-.294l3.848-5.423a.7.7,0,1,0-1.149-.816l-3.366,4.742-1.01-1.01a.7.7,0,0,0-1,1Z" transform="translate(-39.036 -6)"/>
</svg>
