<svg xmlns="http://www.w3.org/2000/svg" width="46" height="46.565" viewBox="0 0 46 46.565">
  <g id="Group_446" data-name="Group 446" transform="translate(-12 -9)">
    <path id="Path_533" data-name="Path 533" d="M57.43,9h-10.7a.605.605,0,0,0-.61.566v3.676H23.877V9.566A.605.605,0,0,0,23.267,9H12.57a.569.569,0,0,0-.57.566V20.54a.536.536,0,0,0,.57.525h3.483V43.5H12.57a.536.536,0,0,0-.57.525V55a.569.569,0,0,0,.57.566h10.7a.605.605,0,0,0,.61-.566V52.361H46.123V55a.605.605,0,0,0,.61.566h10.7A.569.569,0,0,0,58,55V44.025a.536.536,0,0,0-.57-.525H54.418V21.066H57.43A.536.536,0,0,0,58,20.54V9.566A.569.569,0,0,0,57.43,9Zm-44.3,10.934v-9.8h9.615v9.8Zm5.939,1.131V43.5H17.184V21.066Zm3.676,33.369H13.131v-9.8h9.615Zm23.377-3.2H23.877V49.25H46.123Zm0-7.2v4.093H23.877V44.025a.572.572,0,0,0-.61-.525H20.2V21.066h3.066a.572.572,0,0,0,.61-.525V17.389h1.98a.566.566,0,0,0,0-1.131h-1.98V14.373H46.123v1.885H29.816a.566.566,0,1,0,0,1.131H46.123V20.54a.572.572,0,0,0,.61.525H50.27V43.5H46.733A.572.572,0,0,0,46.123,44.025Zm10.746.606v9.8H47.254v-9.8ZM51.4,43.5V21.066h1.885V43.5Zm5.467-23.566H47.254v-9.8h9.615Z"/>
    <path id="Path_534" data-name="Path 534" d="M109.566,150a.566.566,0,0,0-.566.566v.189a.566.566,0,0,0,1.131,0v-.189A.566.566,0,0,0,109.566,150Z" transform="translate(-87.857 -127.709)"/>
    <path id="Path_535" data-name="Path 535" d="M109.566,172a.566.566,0,0,0-.566.566v8.672a.566.566,0,0,0,1.131,0v-8.672A.566.566,0,0,0,109.566,172Z" transform="translate(-87.857 -147.635)"/>
    <path id="Path_536" data-name="Path 536" d="M164.513,143H144.6a.588.588,0,0,0-.6.554v3.6a.566.566,0,1,0,1.131,0v-3.028h8.861v19.418h-2.179a.566.566,0,0,0,0,1.131h5.49a.566.566,0,0,0,0-1.131h-2.179V144.131h8.861v3.028a.566.566,0,1,0,1.131,0v-3.6A.588.588,0,0,0,164.513,143Z" transform="translate(-119.557 -121.369)"/>
  </g>
</svg>
