<svg xmlns="http://www.w3.org/2000/svg" width="45.333" height="43.942" viewBox="0 0 45.333 43.942">
  <g id="Group_450" data-name="Group 450" transform="translate(0 -7.864)">
    <path id="Path_519" data-name="Path 519" d="M157.681,18.972l2.627,4.636v1.138a1.355,1.355,0,0,0-.587,1.116v1.352a1.357,1.357,0,0,0,1.356,1.356h.138a3.034,3.034,0,0,0,6.057,0h.138a1.357,1.357,0,0,0,1.356-1.356V25.861a1.355,1.355,0,0,0-.587-1.116V23.607l2.627-4.636.014-.026a7.407,7.407,0,0,0,.9-3.133.664.664,0,1,0-1.325-.08,6.092,6.092,0,0,1-.749,2.592l-.006.011-2.629,4.639a1.239,1.239,0,0,0-.161.61v.922h-1.944V19.29l3.374-3.329a1.021,1.021,0,0,0,0-1.449L167.077,13.3a1.021,1.021,0,0,0-1.445,0l-.227.227-.57-.4a1.022,1.022,0,0,0-1.183,0l-.57.4-.227-.227a1.021,1.021,0,0,0-1.445,0L160.2,14.511a1.021,1.021,0,0,0,0,1.449l3.373,3.329v5.216h-1.944v-.922a1.238,1.238,0,0,0-.161-.609l-2.63-4.64,0-.009a6.165,6.165,0,0,1,5.4-9.133h.042a6.215,6.215,0,0,1,5.722,3.99.664.664,0,1,0,1.24-.472,7.55,7.55,0,0,0-6.954-4.845h-.051a7.493,7.493,0,0,0-6.575,11.083Zm3.677-3.74.775-.775.194.194a1.019,1.019,0,0,0,1.314.111l.6-.429.6.429a1.019,1.019,0,0,0,1.314-.111l.194-.194.775.775-2.886,2.848ZM164.244,30.1a1.709,1.709,0,0,1-1.7-1.529h3.4A1.709,1.709,0,0,1,164.244,30.1Zm3.2-2.885a.029.029,0,0,1-.029.029h-6.333a.029.029,0,0,1-.029-.029V25.861a.029.029,0,0,1,.029-.029h6.333a.029.029,0,0,1,.029.029Z" transform="translate(-142.884)"/>
    <path id="Path_520" data-name="Path 520" d="M332.152,25.3a.661.661,0,0,0,.329-.088l.78-.447a.664.664,0,1,0-.66-1.151l-.78.447a.664.664,0,0,0,.331,1.239Z" transform="translate(-302.159 -14.273)"/>
    <path id="Path_521" data-name="Path 521" d="M338.379,95.67a.664.664,0,0,0,.345.873l.928.4a.664.664,0,1,0,.528-1.218l-.928-.4A.664.664,0,0,0,338.379,95.67Z" transform="translate(-308.391 -79.673)"/>
    <path id="Path_522" data-name="Path 522" d="M128.93,24.763l.78.447a.664.664,0,1,0,.66-1.151l-.78-.447a.664.664,0,1,0-.66,1.151Z" transform="translate(-117.219 -14.274)"/>
    <path id="Path_523" data-name="Path 523" d="M120.754,97a.661.661,0,0,0,.263-.055l.928-.4a.664.664,0,1,0-.528-1.218l-.928.4A.664.664,0,0,0,120.754,97Z" transform="translate(-109.465 -79.673)"/>
    <path id="Path_524" data-name="Path 524" d="M321.985,147.708a.664.664,0,0,0,.664.664h11.384v15.315a.664.664,0,0,0,1.327,0V148.3a1.258,1.258,0,0,0-1.257-1.257H322.649A.664.664,0,0,0,321.985,147.708Z" transform="translate(-293.498 -126.866)"/>
    <path id="Path_525" data-name="Path 525" d="M41.2,146.268a.664.664,0,0,0-.664.664v2.757H5.473a4.145,4.145,0,0,1-4.139-3.911,4.064,4.064,0,0,1,1.125-3.044,4.291,4.291,0,0,1,3.1-1.337h.683a1.043,1.043,0,0,0,1.042-1.042v-13.5a.664.664,0,1,0-1.327,0V140.07h-.4a5.623,5.623,0,0,0-4.069,1.752c-.058.061-.113.123-.168.186V122.189a4.164,4.164,0,0,1,4.159-4.159h.475v5.992a.664.664,0,1,0,1.327,0v-3.308h6.281a.664.664,0,0,0,0-1.327H7.288v-1.642A1.043,1.043,0,0,0,6.246,116.7h-.76A5.493,5.493,0,0,0,0,122.189s0,23.562.009,23.662a5.473,5.473,0,0,0,5.464,5.165H40.605a1.258,1.258,0,0,0,1.257-1.257v-2.827a.664.664,0,0,0-.664-.664Z" transform="translate(0 -99.21)"/>
    <path id="Path_526" data-name="Path 526" d="M142.3,357.643H114.458a.663.663,0,0,0-.319.082l-4.609,2.525a.974.974,0,0,0,0,1.709l4.609,2.524a.663.663,0,0,0,.319.082h3.91a.664.664,0,0,0,0-1.327h-3.246V358.97h20.243v4.267H121.2a.664.664,0,0,0,0,1.327h21.1a2.419,2.419,0,0,0,2.417-2.417v-2.088A2.419,2.419,0,0,0,142.3,357.643Zm-28.5,1.784v3.354l-3.062-1.677Zm22.9-.456h1.522v4.267h-1.522Zm6.692,3.177a1.091,1.091,0,0,1-1.089,1.089h-2.754V358.97H142.3a1.091,1.091,0,0,1,1.089,1.089Z" transform="translate(-99.378 -318.833)"/>
    <path id="Path_527" data-name="Path 527" d="M133.3,243.162H112.8a3.779,3.779,0,0,0-3.775,3.775v.682a.664.664,0,1,0,1.327,0v-.682a2.45,2.45,0,0,1,2.447-2.447h20.5a3.573,3.573,0,0,0,0-7.146h-6.43a.664.664,0,0,0,0,1.327h6.43a2.246,2.246,0,0,1,0,4.492Z" transform="translate(-99.378 -209.176)"/>
  </g>
</svg>
