<svg xmlns="http://www.w3.org/2000/svg" width="43.245" height="43.81" viewBox="0 0 43.245 43.81">
  <g id="Group_451" data-name="Group 451" transform="translate(-40.637 -37.657)">
    <path id="Path_528" data-name="Path 528" d="M78.98,284.834l-.192.1a3.1,3.1,0,0,0-3.658-.894l-.013.007-.5.268a4.016,4.016,0,0,0-4.577-.393l-2.809,1.532h-3.74a5.38,5.38,0,0,1-2.327-.538l-.516-.252a8.892,8.892,0,0,0-9.255.9l-.038.031-1.246,1.109a4.278,4.278,0,0,1-1.575.888l-.7-2.3a.619.619,0,0,0-.576-.444H41.239a.63.63,0,0,0-.6.7l2.008,16.453a.591.591,0,0,0,.6.517h9.036a.579.579,0,0,0,.576-.752l-1.178-3.861L55.35,295.6a2.186,2.186,0,0,1,1.592-.2l.038.009,7.521,1.386a9.776,9.776,0,0,0,6.039-.853.6.6,0,0,0,.074-.043l13.008-8.931a.6.6,0,0,0,.175-.807A3.611,3.611,0,0,0,78.98,284.834Zm-3.3.282a1.856,1.856,0,0,1,2,.417l-4.88,2.633-.246.13a4.318,4.318,0,0,0-.636-1.155Zm-5.057-.14.014-.008a2.809,2.809,0,0,1,2.794-.01l-2.419,1.3a4.306,4.306,0,0,0-1.489-.688ZM43.781,301.321,41.92,286.06h4.9l4.653,15.261Zm26.187-6.45a8.562,8.562,0,0,1-5.251.729l-7.5-1.381a3.384,3.384,0,0,0-2.467.335l-.028.017-3.4,2.153-2.43-7.97a5.487,5.487,0,0,0,2.024-1.142l1.227-1.092a7.692,7.692,0,0,1,7.986-.767l.516.254a6.593,6.593,0,0,0,2.851.658h5a3.118,3.118,0,0,1,3.052,2.48l-3.573-.164a21.759,21.759,0,0,0-3.954.182.6.6,0,1,0,.165,1.193,20.541,20.541,0,0,1,3.734-.173l4.267.193h.027a.6.6,0,0,0,.6-.6c0-.083,0-.165-.007-.246l.561-.3,6.182-3.335a2.409,2.409,0,0,1,2.865.43Z" transform="translate(0 -221.06)"/>
    <path id="Path_529" data-name="Path 529" d="M88.918,423.455a1.807,1.807,0,1,0,1.807-1.807A1.807,1.807,0,0,0,88.918,423.455Zm1.807-.6a.6.6,0,1,1-.6.6A.6.6,0,0,1,90.725,422.853Z" transform="translate(-43.433 -345.438)"/>
    <path id="Path_530" data-name="Path 530" d="M169.638,56.934A9.638,9.638,0,1,0,160,47.3a9.638,9.638,0,0,0,9.638,9.638Zm0-18.072A8.434,8.434,0,1,1,161.2,47.3a8.434,8.434,0,0,1,8.434-8.434Z" transform="translate(-107.379)"/>
    <path id="Path_531" data-name="Path 531" d="M215,77.614a.6.6,0,0,0,.6.6h4.348a2.456,2.456,0,0,1-2.337,1.807H215.6a.6.6,0,0,0-.414,1.043l5.026,4.75a.6.6,0,1,0,.828-.877l-3.926-3.711h.5a3.622,3.622,0,0,0,3.567-3.012h1.45a.6.6,0,0,0,0-1.2h-1.45a3.554,3.554,0,0,0-.874-1.807h2.324a.6.6,0,0,0,0-1.2H215.6a.6.6,0,1,0,0,1.2h2.011a2.456,2.456,0,0,1,2.337,1.807H215.6A.6.6,0,0,0,215,77.614Z" transform="translate(-156.857 -32.694)"/>
  </g>
</svg>
