<svg xmlns="http://www.w3.org/2000/svg" width="46.588" height="46.609" viewBox="0 0 46.588 46.609">
  <g id="Group_449" data-name="Group 449" transform="translate(-0.114 0.001)">
    <path id="Path_553" data-name="Path 553" d="M1.788,44.912a5.846,5.846,0,0,0,8.351-.164l4.472-4.771L15.8,41.164a9.91,9.91,0,0,0,5.06,2.713l3.691.746a3.216,3.216,0,0,1,1.795,1.053l.42.566a.91.91,0,1,0,1.462-1.085l-.438-.59-.036-.045a5.046,5.046,0,0,0-2.842-1.683l-3.692-.746a8.094,8.094,0,0,1-4.133-2.216l-1.228-1.229,9.493-10.129a5.96,5.96,0,0,0,1.923,3.9.921.921,0,0,0,1.288,0,.91.91,0,0,0,0-1.287,3.848,3.848,0,0,1-1.247-3.952,5.029,5.029,0,0,1,1.06-1.879.922.922,0,0,0,0-1.283l-.8-.8a.922.922,0,0,0-1.288,0l-.624.624a4.26,4.26,0,0,1-5.356.5l3.881-3.88a3.331,3.331,0,0,1,4.7,0l3.809,3.809a.912.912,0,0,0,.082.109,8.08,8.08,0,0,1,2,5.63c0,.011,0,.022,0,.033V32.76a5.013,5.013,0,0,0,1.721,3.784l8.7,7.675a.91.91,0,0,0,1.2-1.365l-8.7-7.679a3.2,3.2,0,0,1-1.1-2.414v-2.7a9.891,9.891,0,0,0-2.324-6.734.906.906,0,0,0-.157-.21l-1.785-1.785,0,0-.118-.118,3.446-3.677a8.957,8.957,0,0,0,2.1.262h.005a.91.91,0,0,0,.005-1.821A7.137,7.137,0,0,1,30.728,8.9a7.078,7.078,0,0,1,8.126-7L34.83,5.921a.91.91,0,0,0,0,1.287l4.731,4.731a.911.911,0,0,0,1.288,0l3.97-3.97a7.115,7.115,0,0,1-1.058,4.75.91.91,0,1,0,1.531.985,8.952,8.952,0,0,0,.883-7.83.91.91,0,0,0-1.5-.335l-4.47,4.47L36.761,6.564l4.5-4.5a.91.91,0,0,0-.323-1.5A8.907,8.907,0,0,0,29.169,11.049l-7.107,6.662-1.367-1.367a3.351,3.351,0,0,0-4.7,0,3.3,3.3,0,0,0-.962,2.081,3.289,3.289,0,0,0-3.6,4.3,3.289,3.289,0,0,0-1.709.907,3.36,3.36,0,0,0-.437,4.138,3.309,3.309,0,0,0-2.236,4.014l-5.1,4.776a5.847,5.847,0,0,0-.169,8.357ZM30.917,19.918l-.745-.745a5.2,5.2,0,0,0-.743-.616L32.19,15.8A8.859,8.859,0,0,0,33.8,16.843ZM30.9,14.51l-3.274,3.274a5.193,5.193,0,0,0-1.1-.118,5.122,5.122,0,0,0-2.381.582l5.7-5.347A8.855,8.855,0,0,0,30.9,14.51Zm-13.616,3.12a1.514,1.514,0,0,1,2.121,0l2.514,2.513L19.8,22.266l-2.514-2.514a1.517,1.517,0,0,1,0-2.122Zm-3.773,3.013a1.49,1.49,0,0,1,2.089,0l2.91,2.91-.105.105a1.04,1.04,0,0,0,0,1.469,6.105,6.105,0,0,0,.822.687,1.483,1.483,0,0,1-.236.309,1.512,1.512,0,0,1-2.1-.007l-3.384-3.384a1.5,1.5,0,0,1,0-2.09Zm-2.5,4.271a1.489,1.489,0,0,1,2.1,0l0,0h0l2.5,2.5,0,0a1.491,1.491,0,0,1-.01,2.095,1.517,1.517,0,0,1-2.1,0l-2.491-2.491a1.518,1.518,0,0,1,0-2.1ZM9.2,29.881a1.5,1.5,0,0,1,2.105,0l1.478,1.478a1.49,1.49,0,0,1,0,2.106,1.539,1.539,0,0,1-2.1,0L9.2,31.986a1.424,1.424,0,0,1-.267-.371A1.509,1.509,0,0,1,9.2,29.881Zm-6,8.007,4.814-4.512,1.376,1.376a3.3,3.3,0,0,0,.725.548L8.955,36.458a.91.91,0,0,0,0,1.287.92.92,0,0,0,1.287,0l2.079-2.079a3.3,3.3,0,0,0,2.645-3.927,3.3,3.3,0,0,0,2.895-3.371,3.284,3.284,0,0,0,3-1.747,6.039,6.039,0,0,0,3.833-.07L8.806,43.508A3.973,3.973,0,1,1,3.2,37.888Z" transform="translate(0 0)"/>
    <path id="Path_554" data-name="Path 554" d="M53.3,439.926a.91.91,0,1,0,.364-1.123A.918.918,0,0,0,53.3,439.926Z" transform="translate(-48.285 -398.737)"/>
    <path id="Path_555" data-name="Path 555" d="M447.8,165.223a.91.91,0,1,0-.251,1.263A.918.918,0,0,0,447.8,165.223Z" transform="translate(-405.414 -149.818)"/>
  </g>
</svg>
