<svg id="instagram_1384015" xmlns="http://www.w3.org/2000/svg" width="33.067" height="33.067" viewBox="0 0 33.067 33.067">
  <path id="Path_584" data-name="Path 584" d="M213.329,210.165A3.165,3.165,0,1,1,210.165,207,3.165,3.165,0,0,1,213.329,210.165Zm0,0" transform="translate(-193.631 -193.631)"/>
  <path id="Path_585" data-name="Path 585" d="M150.669,137.673a3.144,3.144,0,0,0-1.8-1.8,5.253,5.253,0,0,0-1.763-.327c-1-.046-1.3-.055-3.836-.055s-2.835.01-3.836.055a5.257,5.257,0,0,0-1.763.327,3.145,3.145,0,0,0-1.8,1.8,5.256,5.256,0,0,0-.327,1.763c-.046,1-.055,1.3-.055,3.836s.01,2.835.055,3.836a5.254,5.254,0,0,0,.327,1.763,3.144,3.144,0,0,0,1.8,1.8,5.246,5.246,0,0,0,1.763.327c1,.046,1.3.055,3.836.055s2.836-.01,3.836-.055a5.246,5.246,0,0,0,1.763-.327,3.144,3.144,0,0,0,1.8-1.8,5.257,5.257,0,0,0,.327-1.763c.046-1,.055-1.3.055-3.836s-.01-2.835-.055-3.836A5.246,5.246,0,0,0,150.669,137.673Zm-7.4,10.474a4.875,4.875,0,1,1,4.875-4.875A4.875,4.875,0,0,1,143.268,148.147Zm5.068-8.8a1.139,1.139,0,1,1,1.139-1.139A1.139,1.139,0,0,1,148.336,139.343Zm0,0" transform="translate(-126.734 -126.738)"/>
  <path id="Path_586" data-name="Path 586" d="M16.534,0A16.534,16.534,0,1,0,33.067,16.534,16.536,16.536,0,0,0,16.534,0ZM25.97,20.448a6.966,6.966,0,0,1-.441,2.3,4.854,4.854,0,0,1-2.777,2.777,6.97,6.97,0,0,1-2.3.441c-1.012.046-1.336.057-3.914.057s-2.9-.011-3.914-.057a6.97,6.97,0,0,1-2.3-.441,4.854,4.854,0,0,1-2.777-2.777,6.964,6.964,0,0,1-.441-2.3c-.047-1.013-.058-1.336-.058-3.914s.011-2.9.057-3.914a6.966,6.966,0,0,1,.441-2.3,4.858,4.858,0,0,1,2.777-2.777,6.972,6.972,0,0,1,2.3-.441c1.012-.046,1.336-.057,3.914-.057s2.9.011,3.914.058a6.973,6.973,0,0,1,2.3.441,4.856,4.856,0,0,1,2.777,2.777,6.965,6.965,0,0,1,.441,2.3c.046,1.012.057,1.336.057,3.914S26.017,19.435,25.97,20.448Zm0,0" transform="translate(0 0)"/>
</svg>
