<svg xmlns="http://www.w3.org/2000/svg" width="51.178" height="54.748" viewBox="0 0 51.178 54.748">
  <g id="Group_448" data-name="Group 448" transform="translate(-2.97 -0.87)">
    <path id="Path_537" data-name="Path 537" d="M45.759,33.09V27.551l-3.579-.682a12.253,12.253,0,0,0-1.031-2.488l2.045-3.016-3.92-3.92L36.258,19.49a12.476,12.476,0,0,0-2.5-1.04l-.682-3.57H27.541l-.682,3.579a12.254,12.254,0,0,0-2.488,1.031l-3.016-2.045-3.92,3.92,2.045,3.016a12.253,12.253,0,0,0-1.031,2.488l-3.579.682V33.09l3.57.682a12,12,0,0,0,1.04,2.5l-2.045,3.016,3.92,3.92,3.016-2.045a11.976,11.976,0,0,0,2.488,1.031l.682,3.579H33.08l.682-3.57a12,12,0,0,0,2.5-1.04L39.274,43.2l3.92-3.92-2.045-3.016a12.477,12.477,0,0,0,1.04-2.5ZM41,39.08,39.07,41.006l-2.744-1.866-.469.29a10.387,10.387,0,0,1-3.025,1.253l-.537.128-.622,3.255H28.955l-.622-3.255-.528-.128a10.557,10.557,0,0,1-3.016-1.253l-.469-.29-2.744,1.866L19.65,39.08l1.866-2.744-.29-.469a10.387,10.387,0,0,1-1.253-3.025l-.128-.537-3.255-.622V28.957l3.255-.622.128-.528a10.557,10.557,0,0,1,1.253-3.016l.29-.469L19.65,21.578l1.926-1.926,2.744,1.866.469-.29A10.659,10.659,0,0,1,27.8,19.976l.528-.128.622-3.255h2.718l.622,3.255.537.128a10.387,10.387,0,0,1,3.025,1.253l.469.29,2.744-1.866L41,21.578l-1.866,2.744.29.469a10.659,10.659,0,0,1,1.253,3.016l.128.528,3.255.622v2.718L40.8,32.3l-.128.537a10.387,10.387,0,0,1-1.253,3.025l-.29.469Z" transform="translate(-1.76 -2.072)"/>
    <path id="Path_538" data-name="Path 538" d="M31.971,26.05A5.931,5.931,0,1,0,37.9,31.981,5.935,5.935,0,0,0,31.971,26.05Zm0,10.149A4.226,4.226,0,1,1,36.2,31.972,4.231,4.231,0,0,1,31.971,36.2Z" transform="translate(-3.412 -3.724)"/>
    <path id="Path_539" data-name="Path 539" d="M2.97,32.961a25.618,25.618,0,0,0,25.589,25.6,25.271,25.271,0,0,0,3.783-.281l.179.98a.9.9,0,0,0,.571.682l.5.162,7.286-5.479a.9.9,0,0,0,.358-.878l-.128-.562L32.3,50.625a.922.922,0,0,0-.869.2l-.375.375.332,1.841a20.949,20.949,0,0,1-2.829.2A20.29,20.29,0,0,1,8.3,32.961c0-.545.026-1.1.068-1.636l-1.7-.136c-.043.579-.068,1.176-.068,1.772A22,22,0,0,0,28.559,54.937a22.271,22.271,0,0,0,3.971-.358l.844-.153-.332-1.815,5.539,1.6-4.61,3.468-.247-1.389-.844.153a23.255,23.255,0,0,1-4.312.392A23.914,23.914,0,0,1,4.683,32.944c0-.545.017-1.1.06-1.645l-1.7-.119c-.051.6-.068,1.193-.068,1.781Z" transform="translate(0 -4.483)"/>
    <path id="Path_540" data-name="Path 540" d="M5.71,20.147l1.551.716a23.26,23.26,0,0,1,1.67-3.025L7.5,16.9A26.765,26.765,0,0,0,5.71,20.147Z" transform="translate(-0.405 -2.371)"/>
    <path id="Path_541" data-name="Path 541" d="M3.44,27.337l1.679.3a23.807,23.807,0,0,1,.852-3.349L4.352,23.75a24.585,24.585,0,0,0-.912,3.587Z" transform="translate(-0.07 -3.384)"/>
    <path id="Path_542" data-name="Path 542" d="M11.061,15.113c.341-.418.707-.835,1.082-1.236L10.9,12.71c-.4.426-.792.878-1.159,1.321Z" transform="translate(-1.001 -1.751)"/>
    <path id="Path_543" data-name="Path 543" d="M14.169,18.023c.341-.426.7-.844,1.074-1.236L14,15.62c-.4.426-.792.878-1.159,1.338Z" transform="translate(-1.46 -2.181)"/>
    <path id="Path_544" data-name="Path 544" d="M11.1,22.77a19.993,19.993,0,0,1,1.355-2.48l-1.432-.92A22.173,22.173,0,0,0,9.56,22.054Z" transform="translate(-0.975 -2.736)"/>
    <path id="Path_545" data-name="Path 545" d="M7.65,28l1.679.315a20.021,20.021,0,0,1,.707-2.727L8.417,25.04A23.538,23.538,0,0,0,7.65,28Z" transform="translate(-0.692 -3.575)"/>
    <path id="Path_546" data-name="Path 546" d="M56.559,28.478A25.6,25.6,0,0,0,28.406,3.009l-.162-1.236a.914.914,0,0,0-.537-.716L27.213.87l-7.533,5.1a.894.894,0,0,0-.392.878l.111.571,8.64,2.982a.909.909,0,0,0,.878-.153l.392-.358L29.1,8.275c.622-.06,1.244-.085,1.866-.085A20.289,20.289,0,0,1,51.225,28.453c0,.409-.009.818-.034,1.227l1.7.1c.026-.443.034-.886.034-1.329A21.976,21.976,0,0,0,30.971,6.5a22.612,22.612,0,0,0-2.94.2l-.835.111.2,1.576L21.947,6.5l4.78-3.238L26.94,4.9l.852-.111a24.612,24.612,0,0,1,3.187-.213A23.912,23.912,0,0,1,54.864,28.461c0,.554-.017,1.108-.051,1.645l1.7.111c.026-.562.043-1.15.043-1.738Z" transform="translate(-2.412 0)"/>
    <path id="Path_547" data-name="Path 547" d="M60.426,44.271l-1.585-.631a25.539,25.539,0,0,1-1.261,2.676l1.491.827A25.145,25.145,0,0,0,60.426,44.271Z" transform="translate(-8.076 -6.325)"/>
    <path id="Path_548" data-name="Path 548" d="M62.246,38.063l-1.679-.273a23.967,23.967,0,0,1-.648,2.889l1.636.477A27.466,27.466,0,0,0,62.246,38.063Z" transform="translate(-8.422 -5.46)"/>
    <path id="Path_549" data-name="Path 549" d="M57.456,49.954,56.041,49c-.307.452-.631.9-.971,1.329l1.338,1.048c.366-.46.716-.937,1.048-1.423Z" transform="translate(-7.705 -7.118)"/>
    <path id="Path_550" data-name="Path 550" d="M51.73,47.758l1.338,1.048c.273-.349.537-.707.792-1.065l-1.4-.971C52.224,47.111,51.986,47.435,51.73,47.758Z" transform="translate(-7.211 -6.788)"/>
    <path id="Path_551" data-name="Path 551" d="M56.462,42.889l-1.576-.639a17.618,17.618,0,0,1-.946,1.985l1.5.818C55.815,44.346,56.164,43.613,56.462,42.889Z" transform="translate(-7.538 -6.12)"/>
    <path id="Path_552" data-name="Path 552" d="M58.054,37.561l-1.679-.281a18.221,18.221,0,0,1-.486,2.147l1.636.46A23.054,23.054,0,0,0,58.054,37.561Z" transform="translate(-7.826 -5.385)"/>
  </g>
</svg>
