<svg id="Group_445" data-name="Group 445" xmlns="http://www.w3.org/2000/svg" width="46" height="46" viewBox="0 0 46 46">
  <path id="Path_491" data-name="Path 491" d="M82.617,330.048l-.369.191a2.012,2.012,0,0,0-.207-.652,3.373,3.373,0,0,0-4.542-1.439l-3.3,1.711a2.916,2.916,0,0,0-3.079-1.616L61.6,328.8l-8.626,4.8H50.451v10.722h2.84l8.612-3.88,10.46,1,6.457-3.35-.621-1.2-6.1,3.167-10.42-.995L53,342.975H51.8v-8.026h1.522l8.662-4.819,9.218-.541c.357-.021,1.541-.017,1.8.914a1.4,1.4,0,0,1-.933,1.656l-8.789,1.749.263,1.322,3.362-.669,5.906,2.093,10.428-5.41a2.024,2.024,0,0,1,2.725.863.678.678,0,0,1-.288.908l-6.28,3.258.621,1.2,6.28-3.258a2.026,2.026,0,0,0,.864-2.725,3.373,3.373,0,0,0-4.542-1.439Zm-9.909,5.14-3.221-1.142,2.929-.583.04-.013a2.806,2.806,0,0,0,1.9-2.153l3.765-1.953a2.024,2.024,0,0,1,2.725.863.675.675,0,0,1-.288.908Z" transform="translate(-45.918 -298.322)"/>
  <path id="Path_492" data-name="Path 492" d="M194.475,0h-9.039L181,4.438V16.846h13.477Zm-1.348,15.5H182.346V5l3.648-3.648h7.133Z" transform="translate(-164.736 0)"/>
  <path id="Path_493" data-name="Path 493" d="M211,75h8.086V76.35H211Z" transform="translate(-192.042 -68.264)"/>
  <path id="Path_494" data-name="Path 494" d="M263.5,105h3.369v1.348H263.5Z" transform="translate(-239.826 -95.567)"/>
  <path id="Path_495" data-name="Path 495" d="M211,105h3.369v1.348H211Z" transform="translate(-192.042 -95.567)"/>
  <path id="Path_496" data-name="Path 496" d="M211,135h8.086v1.348H211Z" transform="translate(-192.042 -122.872)"/>
  <path id="Path_497" data-name="Path 497" d="M256,30h1.348v1.348H256Z" transform="translate(-233.001 -27.305)"/>
  <path id="Path_498" data-name="Path 498" d="M286,30h1.348v1.348H286Z" transform="translate(-260.306 -27.305)"/>
  <path id="Path_499" data-name="Path 499" d="M366.435,0,362,4.438V16.846h13.477V0Zm7.691,15.5H363.345V5l3.648-3.648h7.133Z" transform="translate(-329.474)"/>
  <path id="Path_500" data-name="Path 500" d="M392,135h3.369v1.348H392Z" transform="translate(-356.779 -122.872)"/>
  <path id="Path_501" data-name="Path 501" d="M392,75h8.086V76.35H392Z" transform="translate(-356.779 -68.264)"/>
  <path id="Path_502" data-name="Path 502" d="M444.5,135h3.369v1.348H444.5Z" transform="translate(-404.564 -122.872)"/>
  <path id="Path_503" data-name="Path 503" d="M392,105h8.086v1.348H392Z" transform="translate(-356.779 -95.567)"/>
  <path id="Path_504" data-name="Path 504" d="M467,30h1.348v1.348H467Z" transform="translate(-425.043 -27.305)"/>
  <path id="Path_505" data-name="Path 505" d="M437,30h1.348v1.348H437Z" transform="translate(-397.738 -27.305)"/>
  <path id="Path_506" data-name="Path 506" d="M13.477,0H4.438L0,4.438V8.086H1.348V5L5,1.348h7.133V15.5H1.348V9.434H0v7.412H13.477Z" transform="translate(0 0)"/>
  <path id="Path_507" data-name="Path 507" d="M30,135h8.086v1.348H30Z" transform="translate(-27.305 -122.872)"/>
  <path id="Path_508" data-name="Path 508" d="M30,105h8.086v1.348H30Z" transform="translate(-27.305 -95.567)"/>
  <path id="Path_509" data-name="Path 509" d="M30,75h3.369V76.35H30Z" transform="translate(-27.305 -68.264)"/>
  <path id="Path_510" data-name="Path 510" d="M82.5,75h3.369V76.35H82.5Z" transform="translate(-75.09 -68.264)"/>
  <path id="Path_511" data-name="Path 511" d="M105,30h1.348v1.348H105Z" transform="translate(-95.569 -27.305)"/>
  <path id="Path_512" data-name="Path 512" d="M75,30h1.348v1.348H75Z" transform="translate(-68.264 -27.305)"/>
  <path id="Path_513" data-name="Path 513" d="M101.372,206.633V202.5h-1.348v2.785H85.11V202.5H83.763v2.785H68.849V202.5H67.5v4.133H83.763v3.728l-.756-.756-.953.953,2.382,2.382,2.382-2.382-.953-.953-.756.756v-3.728Z" transform="translate(-61.436 -184.307)"/>
</svg>
