<svg xmlns="http://www.w3.org/2000/svg" width="35.325" height="37.496" viewBox="0 0 35.325 37.496">
  <g id="Group_447" data-name="Group 447" transform="translate(-14.823)">
    <path id="Path_514" data-name="Path 514" d="M49.7,10.64,48.35,8.962a2.107,2.107,0,0,0-2.9-.312L43.993,9.823l0,0,0,0-1.213,1V.732A.732.732,0,0,0,42.042,0H15.555a.732.732,0,0,0-.732.732V36.764a.732.732,0,0,0,.732.732H42.042a.732.732,0,0,0,.732-.732V19.039l5.161-4.329,1.451-1.17a2.083,2.083,0,0,0,.312-2.9ZM29.78,23.989l1.681,2.079-3.025.773Zm3.069,1.465L31.762,24.11l-1.121-1.386,11.867-9.779,0,0,1.836-1.513,2.1,2.614ZM41.31,36.031H16.288V1.465H41.31v10.57L37.833,14.9a.733.733,0,0,0-.7-.515H30.739a.732.732,0,1,0,0,1.465h5.942l-2.154,1.775H30.663a.732.732,0,1,0,0,1.465H32.75l-3.6,2.967a.741.741,0,0,0-.2.253L27.6,25.183A.729.729,0,0,0,27.11,25H21.223a.732.732,0,0,0-.732.732v5.888a.732.732,0,0,0,.732.732H27.11a.732.732,0,0,0,.732-.732V28.5l3.813-.975h5.47a.732.732,0,0,0,0-1.465H34.4l6.91-5.8Zm-14.932-9.57v4.423H21.955V26.461ZM48.687,12a.594.594,0,0,1-.219.4l-.885.713-2.1-2.609.886-.714a.6.6,0,0,1,.841.09l1.349,1.677A.6.6,0,0,1,48.687,12Z"/>
    <path id="Path_515" data-name="Path 515" d="M92.936,184.539h5.888a.732.732,0,0,0,.732-.732v-5.888a.732.732,0,0,0-.732-.732H92.936a.732.732,0,0,0-.732.732v5.888A.732.732,0,0,0,92.936,184.539Zm.732-5.888h4.423v4.423H93.669Z" transform="translate(-71.714 -164.211)"/>
    <path id="Path_516" data-name="Path 516" d="M229.278,404.46h-6.386a.732.732,0,1,0,0,1.465h6.386a.732.732,0,1,0,0-1.465Z" transform="translate(-192.152 -374.84)"/>
    <path id="Path_517" data-name="Path 517" d="M81.479,54.646a.732.732,0,0,0-.732-.732H74.09V51.961H90.7v1.953H87.231a.732.732,0,0,0,0,1.465h4.2a.732.732,0,0,0,.732-.732V51.228a.732.732,0,0,0-.732-.732H73.357a.732.732,0,0,0-.732.732v3.418a.732.732,0,0,0,.732.732h7.389A.732.732,0,0,0,81.479,54.646Z" transform="translate(-53.569 -46.798)"/>
    <path id="Path_518" data-name="Path 518" d="M219.546,97.631a.732.732,0,1,0-.315.916A.737.737,0,0,0,219.546,97.631Z" transform="translate(-188.425 -90.062)"/>
  </g>
</svg>
