<svg xmlns="http://www.w3.org/2000/svg" xmlns:xlink="http://www.w3.org/1999/xlink" width="314.275" height="66.526" viewBox="0 0 314.275 66.526">
  <defs>
    <clipPath id="clip-path">
      <rect id="Rectangle_371" data-name="Rectangle 371" width="314.275" height="66.526" fill="none"/>
    </clipPath>
  </defs>
  <g id="Group_566" data-name="Group 566" transform="translate(0 0)">
    <g id="Group_564" data-name="Group 564" transform="translate(0 0)" clip-path="url(#clip-path)">
      <path id="Path_839" data-name="Path 839" d="M307.583.614h10.557l16.252,28.523L334.006.614h8.513V40.3h-9.674L315.764,10.287l.387,30.016h-8.567ZM281,23.775V16.755h19.733V40.3H282.763a37.5,37.5,0,0,1-6.633-.608,12.945,12.945,0,0,1-5.97-2.819,14.569,14.569,0,0,1-4.643-6.633,26.263,26.263,0,0,1-1.437-7.96,8.923,8.923,0,0,1,0-1.713,16.528,16.528,0,0,1,.056-1.659c.387-6.247,2.1-10.89,5.14-13.819,2.985-2.93,7.462-4.423,13.488-4.423L300.728.614V7.468H282.763q-5.887.082-7.628,4.145a23.261,23.261,0,0,0-1.768,9.066v.166a19.92,19.92,0,0,0,1.768,8.678q1.742,3.649,7.628,3.649l9.4-.056V23.775ZM258.331,40.3H249.6V.614h8.734ZM241.361,7.69H220.742a9.306,9.306,0,0,0-4.533,1.1c-1.272.718-1.88,2.1-1.88,4.146a3.635,3.635,0,0,0,1.6,3.316,6.687,6.687,0,0,0,3.649,1l11.055-.056a9.305,9.305,0,0,0,1.271.056,10.587,10.587,0,0,1,1.327.056,18.244,18.244,0,0,1,3.814.608,8.349,8.349,0,0,1,5.307,4.864,13.2,13.2,0,0,1,.83,3.538c.054.387.054.718.11,1.051v1.1c-.056,4.588-1.327,7.738-3.814,9.342-2.487,1.658-5.8,2.487-10.06,2.487H207.2V33.227h20.9a10.993,10.993,0,0,0,4.809-.885c1.327-.608,1.879-2.045,1.6-4.256-.166-1.714-.829-2.819-1.935-3.206a13.532,13.532,0,0,0-3.925-.663l-9.839-.055c-4.09.055-7.3-.774-9.674-2.488-2.377-1.658-3.592-4.7-3.538-9.065.056-4.588,1.382-7.739,3.87-9.452,2.487-1.658,5.8-2.487,10.06-2.487L241.361.614ZM159.108,40.3,141.861.614h9.4L163.2,30.187,175.415.614h8.9L167.731,40.3Z" transform="translate(-44.438 -0.192)" fill="#111"/>
      <path id="Path_840" data-name="Path 840" d="M347.487,85.661l.838-6.819h-5.081l-.838,6.819Zm2.588-10.734a1.419,1.419,0,0,1,1.246.853,3.511,3.511,0,0,1,.3,2.077l-1.079,8.79a3.968,3.968,0,0,1-.82,2.077,1.9,1.9,0,0,1-1.451.853h-9.51l1.8-14.649Zm-11.763,0-.483,3.915H333.7l-1.321,10.734h-3.183l1.341-10.734H326.4l.484-3.915ZM323.069,85.661l-.465,3.915h-9.529a1.376,1.376,0,0,1-1.229-.853,3.375,3.375,0,0,1-.316-2.077l1.451-11.719h3.165l-1.322,10.734Zm-16.08,3.915.484-3.915H310l-.485,3.915Zm.316-14.649-.483,3.915h-4.132l-1.321,10.734h-3.182l1.34-10.734h-4.132l.484-3.915Zm-17.439,0h3.5l-6.236,14.649H284.58l-2.643-14.649h3.518l1.3,7.3ZM275.7,80.786l.242-1.944h-5.081l-.242,1.944Zm1.992-5.859a1.42,1.42,0,0,1,1.247.853,3.517,3.517,0,0,1,.3,2.077l-.484,3.915a4.111,4.111,0,0,1-.8,2.077,1.9,1.9,0,0,1-1.452.853h-6.346l-.614,4.874h-3.164l1.805-14.649Zm-25.275,3.915-.187,1.465H260.5l-.782,6.339V86.7a.127.127,0,0,0-.019.08,4.222,4.222,0,0,1-.838,1.971,1.829,1.829,0,0,1-1.415.826h-9.51l.483-3.915h8.245l.185-1.465h-8.263l.782-6.339a.123.123,0,0,1,.019-.08v-.054a4.265,4.265,0,0,1,.856-2,1.808,1.808,0,0,1,1.4-.8h9.529l-.484,3.915Zm8.078,1.465-.484,3.889Zm-21.869-1.465-.168,1.465h6.812l-.484,3.889h-6.812l-.186,1.465h8.246l-.466,3.915H236.04a1.376,1.376,0,0,1-1.229-.853,3.374,3.374,0,0,1-.316-2.077l1.079-8.79a3.966,3.966,0,0,1,.819-2.077,1.9,1.9,0,0,1,1.452-.853h9.529l-.484,3.915Zm-13.792,0-.185,1.465h8.264l-.782,6.339V86.7a.127.127,0,0,0-.019.08,4.214,4.214,0,0,1-.837,1.971,1.829,1.829,0,0,1-1.415.826H220.35l.484-3.915h8.245l.186-1.465H221l.782-6.339a.127.127,0,0,1,.019-.08v-.054a4.273,4.273,0,0,1,.856-2,1.807,1.807,0,0,1,1.4-.8h9.529l-.484,3.915Zm8.078,1.465-.484,3.889Zm-17.737,9.269,1.805-14.649h3.163l-1.8,14.649Zm-4.1-8.79.242-1.944h-5.081L206,80.786Zm1.992-5.859a1.42,1.42,0,0,1,1.247.853,3.517,3.517,0,0,1,.3,2.077l-.484,3.915a4.1,4.1,0,0,1-.8,2.077,1.9,1.9,0,0,1-1.452.853h-.763l2.066,4.874h-3.314L207.807,84.7h-2.271l-.614,4.874h-3.164l1.8-14.649ZM197.29,80.786l.242-1.944h-5.081l-.242,1.944Zm1.992-5.859a1.42,1.42,0,0,1,1.247.853,3.522,3.522,0,0,1,.3,2.077l-.483,3.915a4.117,4.117,0,0,1-.8,2.077,1.9,1.9,0,0,1-1.452.853h-6.346l-.615,4.874h-3.165l1.805-14.649ZM183.5,80.786l.242-1.944H178.66l-.242,1.944Zm1.992-5.859a1.42,1.42,0,0,1,1.247.853,3.517,3.517,0,0,1,.3,2.077l-.483,3.915a4.117,4.117,0,0,1-.8,2.077,1.9,1.9,0,0,1-1.452.853h-.763l2.066,4.874H182.29L180.224,84.7h-2.271l-.614,4.874h-3.164l1.8-14.649Zm-20.622,3.915-.168,1.465h6.813l-.484,3.889h-6.811l-.187,1.465h8.245l-.466,3.915h-9.529a1.376,1.376,0,0,1-1.229-.853,3.37,3.37,0,0,1-.317-2.077l1.08-8.79a3.967,3.967,0,0,1,.819-2.077,1.9,1.9,0,0,1,1.451-.853h9.529l-.484,3.915Zm-4.932-3.915-.484,3.915H155.32L154,89.576h-3.183l1.341-10.734h-4.132l.484-3.915Zm-13.9,0-1.452,11.719a3.961,3.961,0,0,1-.819,2.077,1.9,1.9,0,0,1-1.451.853h-1.619l-3.611-9.082-1.116,9.082H132.8l1.433-11.719a3.966,3.966,0,0,1,.819-2.077,1.9,1.9,0,0,1,1.452-.853h1.619l3.611,9.082,1.117-9.082Zm-22.539,3.915-.168,1.465h6.812l-.483,3.889h-6.812l-.186,1.465H130.9l-.466,3.915h-9.529a1.376,1.376,0,0,1-1.229-.853,3.374,3.374,0,0,1-.317-2.077l1.08-8.79a3.972,3.972,0,0,1,.819-2.077,1.9,1.9,0,0,1,1.452-.853h9.529l-.484,3.915Z" transform="translate(-37.379 -23.47)" fill="#111"/>
      <path id="Path_841" data-name="Path 841" d="M0,0H20.977L33.714,28.85s2.7,18.5-4.344,19.244H21.876Z" transform="translate(0 0)" fill="#212c2a"/>
      <path id="Path_842" data-name="Path 842" d="M77.12,0H68.582S48.351,0,47,30.416c0,0,4.049,23.526-13.181,20.678l5.242,15.431s24.278.448,24.723-27.119c0,0-3.3-23.225,7.939-23.225h5.4Z" transform="translate(-10.594 0)" fill="#7bbb00"/>
      <path id="Path_843" data-name="Path 843" d="M102.417,7.788a5.529,5.529,0,0,0,.74,2.893,6,6,0,0,0,1.08,1.352,5.825,5.825,0,0,0,1.7,1.073,5.694,5.694,0,0,0,3.426.255,5.844,5.844,0,0,0,1.7-.716,6.056,6.056,0,0,0,1.14-.951,7.1,7.1,0,0,0,.6-.784l.253-.44c.041-.082.082-.157.117-.236a5.646,5.646,0,0,0,.357-3.665,5.427,5.427,0,0,0-.353-1.032c-.034-.08-.073-.148-.112-.227-.022-.043-.036-.071-.059-.111l-.192-.331a5.643,5.643,0,0,0-.782-.97l-.36-.333c-.062-.054-.119-.1-.187-.152a6.871,6.871,0,0,0-.626-.42,5.154,5.154,0,0,0-.467-.24,5.638,5.638,0,0,0-5.966.812,6.133,6.133,0,0,0-.53.5l-.315.377a5.975,5.975,0,0,0-.657,1.082c-.034.069-.069.162-.1.238l-.179.513a2.685,2.685,0,0,0-.074.28,5.845,5.845,0,0,0-.154,1.231m-.73-.012a6.24,6.24,0,0,0,.836,3.268,6.766,6.766,0,0,0,1.22,1.527,6.569,6.569,0,0,0,1.918,1.212,6.431,6.431,0,0,0,3.869.288,6.6,6.6,0,0,0,1.923-.808,6.879,6.879,0,0,0,1.288-1.075,8.038,8.038,0,0,0,.679-.885l.286-.5c.045-.092.093-.178.133-.266a6.378,6.378,0,0,0,.4-4.14,6.213,6.213,0,0,0-.4-1.167c-.038-.089-.083-.167-.127-.256-.024-.049-.039-.081-.066-.125l-.217-.374a6.408,6.408,0,0,0-.884-1.1l-.407-.375c-.071-.062-.135-.113-.212-.173a7.841,7.841,0,0,0-.707-.475c-.166-.091-.351-.2-.527-.271a6.363,6.363,0,0,0-6.739.918,6.6,6.6,0,0,0-.6.567L103,4a6.761,6.761,0,0,0-.742,1.222c-.038.079-.079.182-.114.269l-.2.579a3.173,3.173,0,0,0-.084.316,6.65,6.65,0,0,0-.174,1.391" transform="translate(-31.853 -0.474)" fill="#111" fill-rule="evenodd"/>
      <path id="Path_844" data-name="Path 844" d="M110.824,11.968h.8V8.631c0-.045.007-.03.032-.049l.792,3.169a1.726,1.726,0,0,1,.054.217h.847c.008-.094.59-2.311.645-2.564l.2-.787a.113.113,0,0,1,.031-.05v3.4h.766c.036,0,.047-.011.047-.047V7.656c0-.061-.051-.049-.111-.049h-1.215a2.953,2.953,0,0,1-.092.371l-.387,1.466c-.032.12-.062.244-.1.365-.019.067-.188.684-.19.753l-.225-.732c-.124-.42-.271-1.024-.394-1.474l-.2-.748h-1.309Z" transform="translate(-34.715 -2.382)" fill="#111" fill-rule="evenodd"/>
      <path id="Path_845" data-name="Path 845" d="M104.941,8.3c0,.037.011.048.048.048h1.261v3.625h.863V8.344h1.293V7.609h-3.465Z" transform="translate(-32.872 -2.383)" fill="#111" fill-rule="evenodd"/>
    </g>
  </g>
</svg>
