<svg id="_04.youtube" data-name="04.youtube" xmlns="http://www.w3.org/2000/svg" width="33.007" height="33.007" viewBox="0 0 33.007 33.007">
  <path id="Path_587" data-name="Path 587" d="M66.91,61.44,72.059,64.6,66.91,67.766Z" transform="translate(-52.38 -48.098)"/>
  <path id="Path_588" data-name="Path 588" d="M16.5,0a16.5,16.5,0,1,0,16.5,16.5A16.5,16.5,0,0,0,16.5,0Zm7.865,20.475a2.936,2.936,0,0,1-2.428,1.772,51.426,51.426,0,0,1-10.875,0,2.936,2.936,0,0,1-2.428-1.772,20.616,20.616,0,0,1,0-7.941,2.918,2.918,0,0,1,2.436-1.772,51.426,51.426,0,0,1,10.875,0,2.932,2.932,0,0,1,2.428,1.772,20.616,20.616,0,0,1-.009,7.941Z" transform="translate(0 0)"/>
</svg>
